<mxfile host="app.diagrams.net" modified="2021-07-20T21:46:48.958Z" agent="5.0 (X11; Linux x86_64) AppleWebKit/537.36 (KHTML, like Gecko) Chrome/91.0.4472.114 Safari/537.36" etag="u176srw3bXGYM3aISbDN" version="14.8.4" type="github">
  <diagram id="kopXYusPR0FX1Asma66k" name="Page-1">
    <mxGraphModel dx="1695" dy="1690" grid="1" gridSize="10" guides="1" tooltips="1" connect="1" arrows="1" fold="1" page="1" pageScale="1" pageWidth="827" pageHeight="1169" math="0" shadow="0">
      <root>
        <mxCell id="0" />
        <mxCell id="1" parent="0" />
        <mxCell id="EK3ewk3_L4ycPEfLtRrC-9" style="edgeStyle=orthogonalEdgeStyle;rounded=0;orthogonalLoop=1;jettySize=auto;html=1;entryX=0.5;entryY=0;entryDx=0;entryDy=0;" edge="1" parent="1" source="EK3ewk3_L4ycPEfLtRrC-1" target="EK3ewk3_L4ycPEfLtRrC-2">
          <mxGeometry relative="1" as="geometry" />
        </mxCell>
        <mxCell id="EK3ewk3_L4ycPEfLtRrC-1" value="HTTP CLIENT" style="rounded=1;whiteSpace=wrap;html=1;" vertex="1" parent="1">
          <mxGeometry x="210" y="40" width="120" height="60" as="geometry" />
        </mxCell>
        <mxCell id="EK3ewk3_L4ycPEfLtRrC-10" style="edgeStyle=orthogonalEdgeStyle;rounded=0;orthogonalLoop=1;jettySize=auto;html=1;entryX=0.5;entryY=0;entryDx=0;entryDy=0;" edge="1" parent="1" source="EK3ewk3_L4ycPEfLtRrC-2" target="EK3ewk3_L4ycPEfLtRrC-3">
          <mxGeometry relative="1" as="geometry">
            <mxPoint x="170" y="310" as="targetPoint" />
            <Array as="points">
              <mxPoint x="250" y="260" />
              <mxPoint x="170" y="260" />
            </Array>
          </mxGeometry>
        </mxCell>
        <mxCell id="EK3ewk3_L4ycPEfLtRrC-2" value="API GATEWAY&lt;br&gt;/auth" style="rounded=0;whiteSpace=wrap;html=1;" vertex="1" parent="1">
          <mxGeometry x="210" y="170" width="120" height="60" as="geometry" />
        </mxCell>
        <mxCell id="EK3ewk3_L4ycPEfLtRrC-14" style="edgeStyle=orthogonalEdgeStyle;rounded=0;orthogonalLoop=1;jettySize=auto;html=1;exitX=1;exitY=0.5;exitDx=0;exitDy=0;entryX=0;entryY=0.5;entryDx=0;entryDy=0;" edge="1" parent="1" source="EK3ewk3_L4ycPEfLtRrC-3" target="EK3ewk3_L4ycPEfLtRrC-4">
          <mxGeometry relative="1" as="geometry" />
        </mxCell>
        <mxCell id="EK3ewk3_L4ycPEfLtRrC-21" style="edgeStyle=orthogonalEdgeStyle;rounded=0;orthogonalLoop=1;jettySize=auto;html=1;exitX=1;exitY=0;exitDx=0;exitDy=0;" edge="1" parent="1" source="EK3ewk3_L4ycPEfLtRrC-3">
          <mxGeometry relative="1" as="geometry">
            <mxPoint x="290" y="233" as="targetPoint" />
            <Array as="points">
              <mxPoint x="198" y="290" />
              <mxPoint x="290" y="290" />
              <mxPoint x="290" y="233" />
            </Array>
          </mxGeometry>
        </mxCell>
        <mxCell id="EK3ewk3_L4ycPEfLtRrC-3" value="MS AUTH" style="ellipse;whiteSpace=wrap;html=1;aspect=fixed;" vertex="1" parent="1">
          <mxGeometry x="130" y="320" width="80" height="80" as="geometry" />
        </mxCell>
        <mxCell id="EK3ewk3_L4ycPEfLtRrC-16" style="edgeStyle=orthogonalEdgeStyle;rounded=0;orthogonalLoop=1;jettySize=auto;html=1;exitX=1;exitY=0.5;exitDx=0;exitDy=0;" edge="1" parent="1" source="EK3ewk3_L4ycPEfLtRrC-4" target="EK3ewk3_L4ycPEfLtRrC-5">
          <mxGeometry relative="1" as="geometry" />
        </mxCell>
        <mxCell id="EK3ewk3_L4ycPEfLtRrC-17" style="edgeStyle=orthogonalEdgeStyle;rounded=0;orthogonalLoop=1;jettySize=auto;html=1;exitX=0;exitY=1;exitDx=0;exitDy=0;entryX=1;entryY=1;entryDx=0;entryDy=0;" edge="1" parent="1" source="EK3ewk3_L4ycPEfLtRrC-4" target="EK3ewk3_L4ycPEfLtRrC-3">
          <mxGeometry relative="1" as="geometry" />
        </mxCell>
        <mxCell id="EK3ewk3_L4ycPEfLtRrC-4" value="MS USER" style="ellipse;whiteSpace=wrap;html=1;aspect=fixed;" vertex="1" parent="1">
          <mxGeometry x="320" y="320" width="80" height="80" as="geometry" />
        </mxCell>
        <mxCell id="EK3ewk3_L4ycPEfLtRrC-5" value="USER" style="shape=cylinder3;whiteSpace=wrap;html=1;boundedLbl=1;backgroundOutline=1;size=15;" vertex="1" parent="1">
          <mxGeometry x="470" y="320" width="80" height="80" as="geometry" />
        </mxCell>
        <mxCell id="EK3ewk3_L4ycPEfLtRrC-6" value="LOG_AUTH" style="shape=cylinder3;whiteSpace=wrap;html=1;boundedLbl=1;backgroundOutline=1;size=15;" vertex="1" parent="1">
          <mxGeometry x="130" y="480" width="80" height="80" as="geometry" />
        </mxCell>
        <mxCell id="EK3ewk3_L4ycPEfLtRrC-8" style="edgeStyle=orthogonalEdgeStyle;rounded=0;orthogonalLoop=1;jettySize=auto;html=1;entryX=0.5;entryY=0;entryDx=0;entryDy=0;" edge="1" parent="1" source="EK3ewk3_L4ycPEfLtRrC-7" target="EK3ewk3_L4ycPEfLtRrC-1">
          <mxGeometry relative="1" as="geometry" />
        </mxCell>
        <mxCell id="EK3ewk3_L4ycPEfLtRrC-7" value="Actor" style="shape=umlActor;verticalLabelPosition=bottom;verticalAlign=top;html=1;outlineConnect=0;" vertex="1" parent="1">
          <mxGeometry x="255" y="-100" width="30" height="60" as="geometry" />
        </mxCell>
        <mxCell id="EK3ewk3_L4ycPEfLtRrC-13" value="Autentica esse usuário e me traz o token dele, se ele for valido" style="text;html=1;strokeColor=none;fillColor=none;align=center;verticalAlign=middle;whiteSpace=wrap;rounded=0;" vertex="1" parent="1">
          <mxGeometry x="30" y="250" width="130" height="53" as="geometry" />
        </mxCell>
        <mxCell id="EK3ewk3_L4ycPEfLtRrC-15" value="Ver se esse usuário existe" style="text;html=1;strokeColor=none;fillColor=none;align=center;verticalAlign=middle;whiteSpace=wrap;rounded=0;" vertex="1" parent="1">
          <mxGeometry x="220" y="320" width="80" height="30" as="geometry" />
        </mxCell>
        <mxCell id="EK3ewk3_L4ycPEfLtRrC-19" style="edgeStyle=orthogonalEdgeStyle;rounded=0;orthogonalLoop=1;jettySize=auto;html=1;" edge="1" parent="1" target="EK3ewk3_L4ycPEfLtRrC-6">
          <mxGeometry relative="1" as="geometry">
            <mxPoint x="170" y="400" as="sourcePoint" />
          </mxGeometry>
        </mxCell>
        <mxCell id="EK3ewk3_L4ycPEfLtRrC-18" value="Se não existir, o campo uuid vai ser null" style="text;html=1;strokeColor=none;fillColor=none;align=center;verticalAlign=middle;whiteSpace=wrap;rounded=0;" vertex="1" parent="1">
          <mxGeometry x="210" y="390" width="120" height="50" as="geometry" />
        </mxCell>
        <mxCell id="EK3ewk3_L4ycPEfLtRrC-20" value="Se o usuário existir, vou verificar se ele pode acessar a pagina" style="text;html=1;strokeColor=none;fillColor=none;align=center;verticalAlign=middle;whiteSpace=wrap;rounded=0;" vertex="1" parent="1">
          <mxGeometry y="337" width="130" height="53" as="geometry" />
        </mxCell>
        <mxCell id="EK3ewk3_L4ycPEfLtRrC-22" value="Ele realmente é valido, aqui o token dele" style="text;html=1;strokeColor=none;fillColor=none;align=center;verticalAlign=middle;whiteSpace=wrap;rounded=0;" vertex="1" parent="1">
          <mxGeometry x="300" y="240" width="130" height="53" as="geometry" />
        </mxCell>
        <mxCell id="EK3ewk3_L4ycPEfLtRrC-23" value="Se o usuário existir, vou verificar se existi algum token não exoirado para ele" style="text;html=1;strokeColor=none;fillColor=none;align=center;verticalAlign=middle;whiteSpace=wrap;rounded=0;" vertex="1" parent="1">
          <mxGeometry x="-70" y="410" width="160" height="60" as="geometry" />
        </mxCell>
        <mxCell id="EK3ewk3_L4ycPEfLtRrC-24" value="Se o token for expirado, vou retornar um novo, caso não retorno o não expirado" style="text;html=1;strokeColor=none;fillColor=none;align=center;verticalAlign=middle;whiteSpace=wrap;rounded=0;" vertex="1" parent="1">
          <mxGeometry x="-60" y="480" width="160" height="60" as="geometry" />
        </mxCell>
        <mxCell id="EK3ewk3_L4ycPEfLtRrC-25" value="user&lt;br&gt;password" style="text;html=1;strokeColor=none;fillColor=none;align=center;verticalAlign=middle;whiteSpace=wrap;rounded=0;" vertex="1" parent="1">
          <mxGeometry x="271" y="113" width="70" height="40" as="geometry" />
        </mxCell>
      </root>
    </mxGraphModel>
  </diagram>
</mxfile>
